<svg xmlns:xlink="http://www.w3.org/1999/xlink" height="512pt" viewBox="-57 0 512 512.00035" width="512pt"
    xmlns="http://www.w3.org/2000/svg">
    <linearGradient id="a">
        <stop offset="0" stop-color="#662d91" />
        <stop offset=".437" stop-color="#3873b3" />
        <stop offset="1" stop-color="#00c9dd" />
    </linearGradient>
    <linearGradient gradientTransform="matrix(1.082198 0 0 -1.082198 -57.150456 502.391298)" gradientUnits="userSpaceOnUse"
        id="b" x1="102.5349" x2="530.7705" y1="519.321" y2="91.0854"
        xlink:href="#a" />
    <linearGradient gradientTransform="matrix(1.082198 0 0 -1.082198 -57.150456 502.391298)" gradientUnits="userSpaceOnUse"
        id="c" x1="71.0495" x2="499.2851" y1="487.8356" y2="59.6"
        xlink:href="#a" />
    <linearGradient gradientTransform="matrix(1.082198 0 0 -1.082198 -57.150456 502.391298)" gradientUnits="userSpaceOnUse"
        id="d" x1="51.3405" x2="479.5762" y1="468.1267" y2="39.8911"
        xlink:href="#a" />
    <linearGradient gradientTransform="matrix(1.082198 0 0 -1.082198 -57.150456 502.391298)" gradientUnits="userSpaceOnUse"
        id="e" x1="31.6315" x2="459.8672" y1="448.4177" y2="20.1821"
        xlink:href="#a" />
    <linearGradient gradientTransform="matrix(1.082198 0 0 -1.082198 -57.150456 502.391298)" gradientUnits="userSpaceOnUse"
        id="f" x1="138.0114" x2="566.247" y1="554.7975" y2="126.5619"
        xlink:href="#a" />
    <linearGradient gradientTransform="matrix(1.082198 0 0 -1.082198 -57.150456 502.391298)" gradientUnits="userSpaceOnUse"
        id="g" x1="157.7198" x2="585.9555" y1="574.506" y2="146.2704"
        xlink:href="#a" />
    <linearGradient gradientTransform="matrix(1.082198 0 0 -1.082198 -57.150456 502.391298)" gradientUnits="userSpaceOnUse"
        id="h" x1="181.3706" x2="609.6062" y1="598.1567" y2="169.9211"
        xlink:href="#a" />
    <linearGradient gradientTransform="matrix(1.082198 0 0 -1.082198 -57.150456 502.391298)" gradientUnits="userSpaceOnUse"
        id="i" x1="-35.4267" x2="392.8089" y1="381.3594" y2="-46.8762"
        xlink:href="#a" />
    <path
        d="m190.316406 111.015625c18.847656 0 34.128906-15.28125 34.128906-34.128906 0-18.847657-15.28125-34.125-34.128906-34.125s-34.125 15.277343-34.125 34.125c0 18.847656 15.277344 34.128906 34.125 34.128906zm0-51.191406c9.425782 0 17.066406 7.640625 17.066406 17.0625 0 9.425781-7.640624 17.066406-17.066406 17.066406-9.421875 0-17.0625-7.640625-17.0625-17.066406 0-9.421875 7.640625-17.0625 17.0625-17.0625zm0 0"
        fill="url(#b)" />
    <path
        d="m122.066406 111.015625c4.710938-.003906 8.53125-3.824219 8.527344-8.535156 0-2.261719-.898438-4.429688-2.496094-6.027344-10.804687-10.800781-10.808594-28.3125-.011718-39.117187.003906-.003907.007812-.007813.011718-.011719 3.390625-3.273438 3.484375-8.671875.210938-12.0625-3.273438-3.390625-8.675782-3.484375-12.066406-.210938-.070313.070313-.140626.140625-.207032.210938-17.46875 17.457031-17.476562 45.769531-.019531 63.234375.007813.007812.011719.011718.019531.019531 1.597656 1.597656 3.769532 2.5 6.03125 2.5zm0 0"
        fill="url(#c)" />
    <path
        d="m79.40625 128.078125c4.714844 0 8.53125-3.820313 8.53125-8.535156 0-2.261719-.898438-4.429688-2.496094-6.027344-20.226562-20.230469-20.226562-53.023437 0-73.253906 3.386719-3.273438 3.480469-8.675781.207032-12.0625-3.273438-3.390625-8.671876-3.484375-12.0625-.210938-.070313.070313-.140626.140625-.210938.210938-26.890625 26.890625-26.890625 70.488281 0 97.378906 1.601562 1.601563 3.769531 2.5 6.03125 2.5zm0 0"
        fill="url(#d)" />
    <path
        d="m36.75 153.671875c4.710938 0 8.53125-3.820313 8.53125-8.53125 0-2.261719-.902344-4.433594-2.5-6.03125-34.296875-34.390625-34.296875-90.050781 0-124.441406 3.390625-3.273438 3.484375-8.675781.210938-12.0625-3.273438-3.390625-8.675782-3.484375-12.0625-.210938-.074219.066407-.140626.136719-.210938.210938-40.957031 41.054687-40.957031 107.511719 0 148.566406 1.597656 1.601563 3.769531 2.5 6.03125 2.5zm0 0"
        fill="url(#e)" />
    <path
        d="m261.070312 108.515625c3.332032 3.328125 8.730469 3.328125 12.0625 0 17.46875-17.457031 17.476563-45.769531.019532-63.234375-.007813-.007812-.011719-.011719-.019532-.019531-3.273437-3.390625-8.675781-3.484375-12.0625-.210938-3.390624 3.273438-3.484374 8.675781-.210937 12.066407.070313.070312.140625.140624.210937.207031 10.804688 10.800781 10.808594 28.3125.007813 39.117187 0 .003906-.003906.003906-.007813.007813-3.332031 3.335937-3.332031 8.734375 0 12.066406zm0 0"
        fill="url(#f)" />
    <path
        d="m303.726562 125.578125c3.332032 3.332031 8.734376 3.332031 12.066407 0 26.890625-26.890625 26.890625-70.488281 0-97.378906-3.390625-3.273438-8.792969-3.179688-12.066407.207031-3.191406 3.308594-3.191406 8.550781 0 11.855469 20.226563 20.230469 20.226563 53.023437 0 73.253906-3.328124 3.332031-3.328124 8.730469 0 12.0625zm0 0"
        fill="url(#g)" />
    <path
        d="m354.917969 151.171875c3.332031 3.332031 8.734375 3.332031 12.0625 0 40.960937-41.054687 40.960937-107.511719 0-148.570313-3.386719-3.273437-8.789063-3.179687-12.0625.210938-3.191407 3.304688-3.191407 8.546875 0 11.855469 34.296875 34.390625 34.296875 90.050781 0 124.441406-3.332031 3.332031-3.332031 8.730469 0 12.0625zm0 0"
        fill="url(#h)" />
    <path
        d="m51.347656 511.632812c4.507813 1.359376 9.261719-1.1875 10.628906-5.691406l18.5-61.171875 101.308594 38.964844v19.734375c0 4.710938 3.820313 8.53125 8.535156 8.53125 4.710938 0 8.53125-3.820312 8.53125-8.53125v-19.734375l101.3125-38.964844 18.496094 61.171875c1.398438 4.5 6.179688 7.015625 10.679688 5.617188 4.453125-1.386719 6.972656-6.089844 5.648437-10.566406l-110.910156-366.855469c-1.367187-4.511719-6.128906-7.058594-10.640625-5.695313-.800781.246094-1.5625.605469-2.261719 1.070313-12.625 8.4375-29.089843 8.4375-41.71875 0-3.917969-2.613281-9.214843-1.558594-11.832031 2.363281-.464844.695312-.824219 1.457031-1.066406 2.261719l-110.910156 366.855469c-1.367188 4.511718 1.183593 9.273437 5.695312 10.636718 0 .003906 0 .003906.003906.003906zm34.03125-83.242187 36.363282-120.296875 60.042968 30.015625v127.339844zm69.960938-231.4375 26.445312 13.179687v108.898438l-54.984375-27.496094zm43.511718 13.183594 26.386719-13.191407 28.597657 94.589844-54.984376 27.496094zm0 255.3125v-127.339844l60-30.015625 36.40625 120.296875zm21.378907-285.082031-21.378907 10.691406v-38.871094c4.070313-.625 8.058594-1.710938 11.882813-3.242188zm-50.335938-31.421876c3.824219 1.53125 7.8125 2.617188 11.882813 3.242188v38.871094l-21.378906-10.6875zm0 0"
        fill="url(#i)" />
</svg>